M48
;DRILL file {KiCad (5.0.0)} date 07/21/19 20:59:49
;FORMAT={-:-/ absolute / inch / decimal}
FMAT,2
INCH,TZ
T1C0.0157
T2C0.0236
T3C0.0315
T4C0.0354
T5C0.0394
T6C0.0433
T7C0.0591
%
G90
G05
M72
T1
X3.7Y-2.8
X5.2211Y-3.3404
T2
X3.65Y-2.135
X4.4Y-2.35
X4.4Y-2.55
X4.5Y-2.126
X5.1596Y-2.8004
X5.2Y-2.3375
X5.2Y-2.55
X5.7404Y-2.8
X6.5Y-2.35
X6.5Y-2.55
T3
X4.3Y-2.56
X4.4704Y-2.8004
X5.0963Y-2.5563
X5.775Y-2.505
X6.3937Y-2.5563
X6.45Y-2.8
X6.575Y-2.8
X7.2Y-2.5563
T4
X5.4Y-2.3
X5.5Y-2.3
X4.6Y-2.
X4.6Y-2.9
X4.7Y-2.
X4.7Y-2.9
X4.8Y-2.
X4.8Y-2.9
X4.9Y-2.
X4.9Y-2.9
X5.Y-2.
X5.Y-2.9
X6.7Y-2.
X6.7Y-2.9
X6.8Y-2.
X6.8Y-2.9
X6.9Y-2.
X6.9Y-2.9
X7.Y-2.
X7.Y-2.9
X7.1Y-2.
X7.1Y-2.9
X5.4Y-2.575
X5.5Y-2.575
X3.8Y-2.
X3.8Y-2.9
X3.9Y-2.
X3.9Y-2.9
X4.Y-2.
X4.Y-2.9
X4.1Y-2.
X4.1Y-2.9
X4.2Y-2.
X4.2Y-2.9
X5.9Y-2.
X5.9Y-2.9
X6.Y-2.
X6.Y-2.9
X6.1Y-2.
X6.1Y-2.9
X6.2Y-2.
X6.2Y-2.9
X6.3Y-2.
X6.3Y-2.9
T5
X5.3589Y-2.8307
X5.3589Y-3.4016
X5.4573Y-2.8307
X5.5557Y-2.8307
X5.5557Y-3.4016
T6
X4.4557Y-3.0307
X5.2Y-1.75
X4.0198Y-3.1557
X4.0198Y-3.3329
X4.2757Y-3.1557
X4.2757Y-3.3329
X6.3557Y-3.0307
X6.5557Y-3.0307
X6.4557Y-3.0307
X6.2557Y-3.0307
X4.9Y-1.75
X5.9057Y-3.1535
X5.9057Y-3.3307
X6.1616Y-3.1535
X6.1616Y-3.3307
X5.3Y-1.75
X4.5557Y-3.0307
X6.64Y-3.15
X6.64Y-3.3272
X6.8959Y-3.15
X6.8959Y-3.3272
X4.3557Y-3.0307
X5.1Y-1.75
X4.2557Y-3.03
X4.7557Y-3.0307
X5.Y-1.75
X6.6557Y-3.0307
X4.7557Y-3.1535
X4.7557Y-3.3307
X5.0116Y-3.1535
X5.0116Y-3.3307
X4.9557Y-3.0307
T7
X5.2368Y-3.1004G85X5.2368Y-3.1516
G05
X5.6778Y-3.1004G85X5.6778Y-3.1516
G05
T0
M30
