M48
;DRILL file {KiCad (5.0.0)} date 05/11/19 23:01:23
;FORMAT={-:-/ absolute / inch / decimal}
FMAT,2
INCH,TZ
T1C0.0157
T2C0.0236
T3C0.0354
T4C0.0394
T5C0.0433
T6C0.0591
%
G90
G05
M72
T1
X5.1Y-3.45
X5.44Y-3.2
T2
X3.65Y-2.135
X3.7402Y-1.8307
X3.7402Y-3.3268
X4.325Y-2.35
X4.325Y-2.55
X4.5Y-2.126
X5.125Y-2.3375
X5.125Y-2.55
X5.6904Y-2.1904
X5.6904Y-2.71
X6.425Y-2.55
X6.45Y-2.35
X7.1457Y-1.8307
X7.1457Y-3.3268
T3
X5.4Y-2.575
X5.5Y-2.575
X5.4Y-2.3
X5.5Y-2.3
X4.6Y-2.
X4.6Y-2.9
X4.7Y-2.
X4.7Y-2.9
X4.8Y-2.
X4.8Y-2.9
X4.9Y-2.
X4.9Y-2.9
X5.Y-2.
X5.Y-2.9
X6.7Y-2.
X6.7Y-2.9
X6.8Y-2.
X6.8Y-2.9
X6.9Y-2.
X6.9Y-2.9
X7.Y-2.
X7.Y-2.9
X7.1Y-2.
X7.1Y-2.9
X3.8Y-2.
X3.8Y-2.9
X3.9Y-2.
X3.9Y-2.9
X4.Y-2.
X4.Y-2.9
X4.1Y-2.
X4.1Y-2.9
X4.2Y-2.
X4.2Y-2.9
X5.9Y-2.
X5.9Y-2.9
X6.Y-2.
X6.Y-2.9
X6.1Y-2.
X6.1Y-2.9
X6.2Y-2.
X6.2Y-2.9
X6.3Y-2.
X6.3Y-2.9
T4
X4.3159Y-3.1
X7.0079Y-3.05
X3.65Y-2.3
X4.8375Y-3.1
X4.252Y-1.85
X5.1Y-3.06
X5.25Y-2.575
X6.32Y-3.1
X5.3531Y-2.9
X5.3531Y-3.4709
X5.4516Y-2.9
X5.55Y-2.9
X5.55Y-3.4709
X6.5841Y-3.1
X4.4Y-1.85
X6.4961Y-2.9724
X5.25Y-2.3
X5.85Y-3.1
X4.6Y-3.1
T5
X6.7132Y-3.225
X6.7132Y-3.4022
X6.9691Y-3.225
X6.9691Y-3.4022
X4.75Y-3.2228
X4.75Y-3.4
X5.0059Y-3.2228
X5.0059Y-3.4
X3.9309Y-3.225
X3.9309Y-3.4022
X4.1868Y-3.225
X4.1868Y-3.4022
X5.9Y-3.2228
X5.9Y-3.4
X6.1559Y-3.2228
X6.1559Y-3.4
T6
X5.2311Y-3.1697G85X5.2311Y-3.2209
G05
X5.672Y-3.1697G85X5.672Y-3.2209
G05
T0
M30
